# Tiled2Unity generated file. Do not modify by hand.
# Wavefront file for 'Level_02_mesh_0003.obj'

# Vertices (Count = 632)
v -1.6 -5.28 0
v -1.76 -5.28 0
v -1.76 -5.12 0
v -1.6 -5.12 0
v -1.76 -5.28 0
v -1.92 -5.28 0
v -1.92 -5.12 0
v -1.76 -5.12 0
v -1.92 -5.28 0
v -2.08 -5.28 0
v -2.08 -5.12 0
v -1.92 -5.12 0
v -2.08 -5.28 0
v -2.24 -5.28 0
v -2.24 -5.12 0
v -2.08 -5.12 0
v -2.24 -5.28 0
v -2.4 -5.28 0
v -2.4 -5.12 0
v -2.24 -5.12 0
v -2.4 -5.28 0
v -2.56 -5.28 0
v -2.56 -5.12 0
v -2.4 -5.12 0
v -2.56 -5.28 0
v -2.72 -5.28 0
v -2.72 -5.12 0
v -2.56 -5.12 0
v -2.72 -5.28 0
v -2.88 -5.28 0
v -2.88 -5.12 0
v -2.72 -5.12 0
v -2.88 -5.28 0
v -3.04 -5.28 0
v -3.04 -5.12 0
v -2.88 -5.12 0
v -3.04 -5.28 0
v -3.2 -5.28 0
v -3.2 -5.12 0
v -3.04 -5.12 0
v -3.2 -5.28 0
v -3.36 -5.28 0
v -3.36 -5.12 0
v -3.2 -5.12 0
v -3.36 -5.28 0
v -3.52 -5.28 0
v -3.52 -5.12 0
v -3.36 -5.12 0
v -3.52 -5.28 0
v -3.68 -5.28 0
v -3.68 -5.12 0
v -3.52 -5.12 0
v -4.64 -5.28 0
v -4.8 -5.28 0
v -4.8 -5.12 0
v -4.64 -5.12 0
v -4.8 -5.28 0
v -4.96 -5.28 0
v -4.96 -5.12 0
v -4.8 -5.12 0
v -4.96 -5.28 0
v -5.12 -5.28 0
v -5.12 -5.12 0
v -4.96 -5.12 0
v -5.12 -5.28 0
v -5.28 -5.28 0
v -5.28 -5.12 0
v -5.12 -5.12 0
v -5.28 -5.28 0
v -5.44 -5.28 0
v -5.44 -5.12 0
v -5.28 -5.12 0
v -5.44 -5.28 0
v -5.6 -5.28 0
v -5.6 -5.12 0
v -5.44 -5.12 0
v -5.6 -5.28 0
v -5.76 -5.28 0
v -5.76 -5.12 0
v -5.6 -5.12 0
v -5.76 -5.28 0
v -5.92 -5.28 0
v -5.92 -5.12 0
v -5.76 -5.12 0
v -5.92 -5.28 0
v -6.08 -5.28 0
v -6.08 -5.12 0
v -5.92 -5.12 0
v -6.08 -5.28 0
v -6.24 -5.28 0
v -6.24 -5.12 0
v -6.08 -5.12 0
v -6.24 -5.28 0
v -6.4 -5.28 0
v -6.4 -5.12 0
v -6.24 -5.12 0
v -1.6 -5.44 0
v -1.76 -5.44 0
v -1.76 -5.28 0
v -1.6 -5.28 0
v -3.52 -5.44 0
v -3.68 -5.44 0
v -3.68 -5.28 0
v -3.52 -5.28 0
v -3.68 -5.44 0
v -3.84 -5.44 0
v -3.84 -5.28 0
v -3.68 -5.28 0
v -3.84 -5.44 0
v -4 -5.44 0
v -4 -5.28 0
v -3.84 -5.28 0
v -4 -5.44 0
v -4.16 -5.44 0
v -4.16 -5.28 0
v -4 -5.28 0
v -4.16 -5.44 0
v -4.32 -5.44 0
v -4.32 -5.28 0
v -4.16 -5.28 0
v -4.32 -5.44 0
v -4.48 -5.44 0
v -4.48 -5.28 0
v -4.32 -5.28 0
v -4.48 -5.44 0
v -4.64 -5.44 0
v -4.64 -5.28 0
v -4.48 -5.28 0
v -4.64 -5.44 0
v -4.8 -5.44 0
v -4.8 -5.28 0
v -4.64 -5.28 0
v -1.6 -5.6 0
v -1.76 -5.6 0
v -1.76 -5.44 0
v -1.6 -5.44 0
v -1.6 -5.76 0
v -1.76 -5.76 0
v -1.76 -5.6 0
v -1.6 -5.6 0
v -1.6 -5.92 0
v -1.76 -5.92 0
v -1.76 -5.76 0
v -1.6 -5.76 0
v -1.6 -6.08 0
v -1.76 -6.08 0
v -1.76 -5.92 0
v -1.6 -5.92 0
v -1.6 -6.24 0
v -1.76 -6.24 0
v -1.76 -6.08 0
v -1.6 -6.08 0
v -1.6 -6.4 0
v -1.76 -6.4 0
v -1.76 -6.24 0
v -1.6 -6.24 0
v -6.4 -6.4 0
v -6.56 -6.4 0
v -6.56 -6.24 0
v -6.4 -6.24 0
v -6.56 -6.4 0
v -6.72 -6.4 0
v -6.72 -6.24 0
v -6.56 -6.24 0
v -6.72 -6.4 0
v -6.88 -6.4 0
v -6.88 -6.24 0
v -6.72 -6.24 0
v -6.88 -6.4 0
v -7.04 -6.4 0
v -7.04 -6.24 0
v -6.88 -6.24 0
v -7.04 -6.4 0
v -7.2 -6.4 0
v -7.2 -6.24 0
v -7.04 -6.24 0
v -7.2 -6.4 0
v -7.36 -6.4 0
v -7.36 -6.24 0
v -7.2 -6.24 0
v -1.6 -6.56 0
v -1.76 -6.56 0
v -1.76 -6.4 0
v -1.6 -6.4 0
v -6.24 -6.56 0
v -6.4 -6.56 0
v -6.4 -6.4 0
v -6.24 -6.4 0
v -6.4 -6.56 0
v -6.56 -6.56 0
v -6.56 -6.4 0
v -6.4 -6.4 0
v -7.68 -6.56 0
v -7.84 -6.56 0
v -7.84 -6.4 0
v -7.68 -6.4 0
v -1.6 -6.72 0
v -1.76 -6.72 0
v -1.76 -6.56 0
v -1.6 -6.56 0
v -6.08 -6.72 0
v -6.24 -6.72 0
v -6.24 -6.56 0
v -6.08 -6.56 0
v -6.24 -6.72 0
v -6.4 -6.72 0
v -6.4 -6.56 0
v -6.24 -6.56 0
v -7.68 -6.72 0
v -7.84 -6.72 0
v -7.84 -6.56 0
v -7.68 -6.56 0
v -7.84 -6.72 0
v -8 -6.72 0
v -8 -6.56 0
v -7.84 -6.56 0
v -8 -6.72 0
v -8.16 -6.72 0
v -8.16 -6.56 0
v -8 -6.56 0
v -1.6 -6.88 0
v -1.76 -6.88 0
v -1.76 -6.72 0
v -1.6 -6.72 0
v -1.76 -6.88 0
v -1.92 -6.88 0
v -1.92 -6.72 0
v -1.76 -6.72 0
v -1.92 -6.88 0
v -2.08 -6.88 0
v -2.08 -6.72 0
v -1.92 -6.72 0
v -5.76 -6.88 0
v -5.92 -6.88 0
v -5.92 -6.72 0
v -5.76 -6.72 0
v -6.08 -6.88 0
v -6.24 -6.88 0
v -6.24 -6.72 0
v -6.08 -6.72 0
v -6.4 -6.88 0
v -6.56 -6.88 0
v -6.56 -6.72 0
v -6.4 -6.72 0
v -7.04 -6.88 0
v -7.2 -6.88 0
v -7.2 -6.72 0
v -7.04 -6.72 0
v -7.68 -6.88 0
v -7.84 -6.88 0
v -7.84 -6.72 0
v -7.68 -6.72 0
v -7.84 -6.88 0
v -8 -6.88 0
v -8 -6.72 0
v -7.84 -6.72 0
v -8 -6.88 0
v -8.16 -6.88 0
v -8.16 -6.72 0
v -8 -6.72 0
v -1.92 -7.04 0
v -2.08 -7.04 0
v -2.08 -6.88 0
v -1.92 -6.88 0
v -2.08 -7.04 0
v -2.24 -7.04 0
v -2.24 -6.88 0
v -2.08 -6.88 0
v -2.24 -7.04 0
v -2.4 -7.04 0
v -2.4 -6.88 0
v -2.24 -6.88 0
v -6.08 -7.04 0
v -6.24 -7.04 0
v -6.24 -6.88 0
v -6.08 -6.88 0
v -6.24 -7.04 0
v -6.4 -7.04 0
v -6.4 -6.88 0
v -6.24 -6.88 0
v -7.68 -7.04 0
v -7.84 -7.04 0
v -7.84 -6.88 0
v -7.68 -6.88 0
v -7.84 -7.04 0
v -8 -7.04 0
v -8 -6.88 0
v -7.84 -6.88 0
v -8 -7.04 0
v -8.16 -7.04 0
v -8.16 -6.88 0
v -8 -6.88 0
v -8.16 -7.04 0
v -8.32 -7.04 0
v -8.32 -6.88 0
v -8.16 -6.88 0
v -1.92 -7.2 0
v -2.08 -7.2 0
v -2.08 -7.04 0
v -1.92 -7.04 0
v -2.08 -7.2 0
v -2.24 -7.2 0
v -2.24 -7.04 0
v -2.08 -7.04 0
v -2.24 -7.2 0
v -2.4 -7.2 0
v -2.4 -7.04 0
v -2.24 -7.04 0
v -2.4 -7.2 0
v -2.56 -7.2 0
v -2.56 -7.04 0
v -2.4 -7.04 0
v -2.56 -7.2 0
v -2.72 -7.2 0
v -2.72 -7.04 0
v -2.56 -7.04 0
v -2.72 -7.2 0
v -2.88 -7.2 0
v -2.88 -7.04 0
v -2.72 -7.04 0
v -2.88 -7.2 0
v -3.04 -7.2 0
v -3.04 -7.04 0
v -2.88 -7.04 0
v -5.76 -7.2 0
v -5.92 -7.2 0
v -5.92 -7.04 0
v -5.76 -7.04 0
v -5.92 -7.2 0
v -6.08 -7.2 0
v -6.08 -7.04 0
v -5.92 -7.04 0
v -6.08 -7.2 0
v -6.24 -7.2 0
v -6.24 -7.04 0
v -6.08 -7.04 0
v -6.24 -7.2 0
v -6.4 -7.2 0
v -6.4 -7.04 0
v -6.24 -7.04 0
v -6.4 -7.2 0
v -6.56 -7.2 0
v -6.56 -7.04 0
v -6.4 -7.04 0
v -6.56 -7.2 0
v -6.72 -7.2 0
v -6.72 -7.04 0
v -6.56 -7.04 0
v -6.72 -7.2 0
v -6.88 -7.2 0
v -6.88 -7.04 0
v -6.72 -7.04 0
v -6.88 -7.2 0
v -7.04 -7.2 0
v -7.04 -7.04 0
v -6.88 -7.04 0
v -7.04 -7.2 0
v -7.2 -7.2 0
v -7.2 -7.04 0
v -7.04 -7.04 0
v -7.68 -7.2 0
v -7.84 -7.2 0
v -7.84 -7.04 0
v -7.68 -7.04 0
v -7.84 -7.2 0
v -8 -7.2 0
v -8 -7.04 0
v -7.84 -7.04 0
v -8 -7.2 0
v -8.16 -7.2 0
v -8.16 -7.04 0
v -8 -7.04 0
v -8.16 -7.2 0
v -8.32 -7.2 0
v -8.32 -7.04 0
v -8.16 -7.04 0
v -2.4 -7.36 0
v -2.56 -7.36 0
v -2.56 -7.2 0
v -2.4 -7.2 0
v -2.56 -7.36 0
v -2.72 -7.36 0
v -2.72 -7.2 0
v -2.56 -7.2 0
v -2.72 -7.36 0
v -2.88 -7.36 0
v -2.88 -7.2 0
v -2.72 -7.2 0
v -2.88 -7.36 0
v -3.04 -7.36 0
v -3.04 -7.2 0
v -2.88 -7.2 0
v -3.04 -7.36 0
v -3.2 -7.36 0
v -3.2 -7.2 0
v -3.04 -7.2 0
v -3.2 -7.36 0
v -3.36 -7.36 0
v -3.36 -7.2 0
v -3.2 -7.2 0
v -6.08 -7.36 0
v -6.24 -7.36 0
v -6.24 -7.2 0
v -6.08 -7.2 0
v -6.24 -7.36 0
v -6.4 -7.36 0
v -6.4 -7.2 0
v -6.24 -7.2 0
v -6.4 -7.36 0
v -6.56 -7.36 0
v -6.56 -7.2 0
v -6.4 -7.2 0
v -6.56 -7.36 0
v -6.72 -7.36 0
v -6.72 -7.2 0
v -6.56 -7.2 0
v -6.72 -7.36 0
v -6.88 -7.36 0
v -6.88 -7.2 0
v -6.72 -7.2 0
v -6.88 -7.36 0
v -7.04 -7.36 0
v -7.04 -7.2 0
v -6.88 -7.2 0
v -7.04 -7.36 0
v -7.2 -7.36 0
v -7.2 -7.2 0
v -7.04 -7.2 0
v -7.2 -7.36 0
v -7.36 -7.36 0
v -7.36 -7.2 0
v -7.2 -7.2 0
v -7.36 -7.36 0
v -7.52 -7.36 0
v -7.52 -7.2 0
v -7.36 -7.2 0
v -7.52 -7.36 0
v -7.68 -7.36 0
v -7.68 -7.2 0
v -7.52 -7.2 0
v -7.68 -7.36 0
v -7.84 -7.36 0
v -7.84 -7.2 0
v -7.68 -7.2 0
v -7.84 -7.36 0
v -8 -7.36 0
v -8 -7.2 0
v -7.84 -7.2 0
v -8 -7.36 0
v -8.16 -7.36 0
v -8.16 -7.2 0
v -8 -7.2 0
v -8.16 -7.36 0
v -8.32 -7.36 0
v -8.32 -7.2 0
v -8.16 -7.2 0
v -2.56 -7.52 0
v -2.72 -7.52 0
v -2.72 -7.36 0
v -2.56 -7.36 0
v -2.72 -7.52 0
v -2.88 -7.52 0
v -2.88 -7.36 0
v -2.72 -7.36 0
v -2.88 -7.52 0
v -3.04 -7.52 0
v -3.04 -7.36 0
v -2.88 -7.36 0
v -3.04 -7.52 0
v -3.2 -7.52 0
v -3.2 -7.36 0
v -3.04 -7.36 0
v -3.2 -7.52 0
v -3.36 -7.52 0
v -3.36 -7.36 0
v -3.2 -7.36 0
v -6.72 -7.52 0
v -6.88 -7.52 0
v -6.88 -7.36 0
v -6.72 -7.36 0
v -6.88 -7.52 0
v -7.04 -7.52 0
v -7.04 -7.36 0
v -6.88 -7.36 0
v -7.04 -7.52 0
v -7.2 -7.52 0
v -7.2 -7.36 0
v -7.04 -7.36 0
v -7.2 -7.52 0
v -7.36 -7.52 0
v -7.36 -7.36 0
v -7.2 -7.36 0
v -7.36 -7.52 0
v -7.52 -7.52 0
v -7.52 -7.36 0
v -7.36 -7.36 0
v -7.52 -7.52 0
v -7.68 -7.52 0
v -7.68 -7.36 0
v -7.52 -7.36 0
v -7.68 -7.52 0
v -7.84 -7.52 0
v -7.84 -7.36 0
v -7.68 -7.36 0
v -7.84 -7.52 0
v -8 -7.52 0
v -8 -7.36 0
v -7.84 -7.36 0
v -8 -7.52 0
v -8.16 -7.52 0
v -8.16 -7.36 0
v -8 -7.36 0
v -8.16 -7.52 0
v -8.32 -7.52 0
v -8.32 -7.36 0
v -8.16 -7.36 0
v -2.56 -7.68 0
v -2.72 -7.68 0
v -2.72 -7.52 0
v -2.56 -7.52 0
v -2.72 -7.68 0
v -2.88 -7.68 0
v -2.88 -7.52 0
v -2.72 -7.52 0
v -2.88 -7.68 0
v -3.04 -7.68 0
v -3.04 -7.52 0
v -2.88 -7.52 0
v -3.04 -7.68 0
v -3.2 -7.68 0
v -3.2 -7.52 0
v -3.04 -7.52 0
v -3.2 -7.68 0
v -3.36 -7.68 0
v -3.36 -7.52 0
v -3.2 -7.52 0
v -3.36 -7.68 0
v -3.52 -7.68 0
v -3.52 -7.52 0
v -3.36 -7.52 0
v -3.52 -7.68 0
v -3.68 -7.68 0
v -3.68 -7.52 0
v -3.52 -7.52 0
v -7.04 -7.68 0
v -7.2 -7.68 0
v -7.2 -7.52 0
v -7.04 -7.52 0
v -7.2 -7.68 0
v -7.36 -7.68 0
v -7.36 -7.52 0
v -7.2 -7.52 0
v -7.36 -7.68 0
v -7.52 -7.68 0
v -7.52 -7.52 0
v -7.36 -7.52 0
v -7.52 -7.68 0
v -7.68 -7.68 0
v -7.68 -7.52 0
v -7.52 -7.52 0
v -7.68 -7.68 0
v -7.84 -7.68 0
v -7.84 -7.52 0
v -7.68 -7.52 0
v -7.84 -7.68 0
v -8 -7.68 0
v -8 -7.52 0
v -7.84 -7.52 0
v -3.04 -7.84 0
v -3.2 -7.84 0
v -3.2 -7.68 0
v -3.04 -7.68 0
v -3.2 -7.84 0
v -3.36 -7.84 0
v -3.36 -7.68 0
v -3.2 -7.68 0
v -3.36 -7.84 0
v -3.52 -7.84 0
v -3.52 -7.68 0
v -3.36 -7.68 0
v -3.52 -7.84 0
v -3.68 -7.84 0
v -3.68 -7.68 0
v -3.52 -7.68 0
v -3.68 -7.84 0
v -3.84 -7.84 0
v -3.84 -7.68 0
v -3.68 -7.68 0
v -3.84 -7.84 0
v -4 -7.84 0
v -4 -7.68 0
v -3.84 -7.68 0
v -7.68 -7.84 0
v -7.84 -7.84 0
v -7.84 -7.68 0
v -7.68 -7.68 0
v -7.84 -7.84 0
v -8 -7.84 0
v -8 -7.68 0
v -7.84 -7.68 0
v -3.2 -8 0
v -3.36 -8 0
v -3.36 -7.84 0
v -3.2 -7.84 0
v -3.36 -8 0
v -3.52 -8 0
v -3.52 -7.84 0
v -3.36 -7.84 0
v -3.52 -8 0
v -3.68 -8 0
v -3.68 -7.84 0
v -3.52 -7.84 0
v -3.68 -8 0
v -3.84 -8 0
v -3.84 -7.84 0
v -3.68 -7.84 0
v -3.84 -8 0
v -4 -8 0
v -4 -7.84 0
v -3.84 -7.84 0
v -3.36 -8.16 0
v -3.52 -8.16 0
v -3.52 -8 0
v -3.36 -8 0
v -3.52 -8.16 0
v -3.68 -8.16 0
v -3.68 -8 0
v -3.52 -8 0
v -3.84 -8.16 0
v -4 -8.16 0
v -4 -8 0
v -3.84 -8 0

# Texture cooridinates (Count = 14)
vt 0.28 0.5217391
vt 0.32 0.5217391
vt 0.32 0.5652174
vt 0.28 0.5652174
vt 0.52 0.6521739
vt 0.56 0.6521739
vt 0.56 0.6956522
vt 0.52 0.6956522
vt 0.56 0.7391304
vt 0.52 0.7391304
vt 0.56 0.4782609
vt 0.6 0.4782609
vt 0.6 0.5217391
vt 0.56 0.5217391

# Normal
vn 0 0 -1

# Mesh description
g Level_02_mesh_0003

# Faces
f 1/1/1 2/2/1 3/3/1 4/4/1
f 5/5/1 6/6/1 7/7/1 8/8/1
f 9/5/1 10/6/1 11/7/1 12/8/1
f 13/5/1 14/6/1 15/7/1 16/8/1
f 17/5/1 18/6/1 19/7/1 20/8/1
f 21/5/1 22/6/1 23/7/1 24/8/1
f 25/5/1 26/6/1 27/7/1 28/8/1
f 29/5/1 30/6/1 31/7/1 32/8/1
f 33/5/1 34/6/1 35/7/1 36/8/1
f 37/5/1 38/6/1 39/7/1 40/8/1
f 41/5/1 42/6/1 43/7/1 44/8/1
f 45/5/1 46/6/1 47/7/1 48/8/1
f 49/5/1 50/6/1 51/7/1 52/8/1
f 53/5/1 54/6/1 55/7/1 56/8/1
f 57/5/1 58/6/1 59/7/1 60/8/1
f 61/5/1 62/6/1 63/7/1 64/8/1
f 65/5/1 66/6/1 67/7/1 68/8/1
f 69/5/1 70/6/1 71/7/1 72/8/1
f 73/5/1 74/6/1 75/7/1 76/8/1
f 77/5/1 78/6/1 79/7/1 80/8/1
f 81/5/1 82/6/1 83/7/1 84/8/1
f 85/5/1 86/6/1 87/7/1 88/8/1
f 89/5/1 90/6/1 91/7/1 92/8/1
f 93/5/1 94/6/1 95/7/1 96/8/1
f 97/1/1 98/2/1 99/3/1 100/4/1
f 101/5/1 102/6/1 103/7/1 104/8/1
f 105/5/1 106/6/1 107/7/1 108/8/1
f 109/5/1 110/6/1 111/7/1 112/8/1
f 113/5/1 114/6/1 115/7/1 116/8/1
f 117/5/1 118/6/1 119/7/1 120/8/1
f 121/5/1 122/6/1 123/7/1 124/8/1
f 125/5/1 126/6/1 127/7/1 128/8/1
f 129/5/1 130/6/1 131/7/1 132/8/1
f 133/1/1 134/2/1 135/3/1 136/4/1
f 137/1/1 138/2/1 139/3/1 140/4/1
f 141/1/1 142/2/1 143/3/1 144/4/1
f 145/1/1 146/2/1 147/3/1 148/4/1
f 149/1/1 150/2/1 151/3/1 152/4/1
f 153/1/1 154/2/1 155/3/1 156/4/1
f 157/5/1 158/6/1 159/7/1 160/8/1
f 161/5/1 162/6/1 163/7/1 164/8/1
f 165/5/1 166/6/1 167/7/1 168/8/1
f 169/5/1 170/6/1 171/7/1 172/8/1
f 173/5/1 174/6/1 175/7/1 176/8/1
f 177/5/1 178/6/1 179/7/1 180/8/1
f 181/1/1 182/2/1 183/3/1 184/4/1
f 185/5/1 186/6/1 187/7/1 188/8/1
f 189/5/1 190/6/1 191/7/1 192/8/1
f 193/1/1 194/2/1 195/3/1 196/4/1
f 197/1/1 198/2/1 199/3/1 200/4/1
f 201/5/1 202/6/1 203/7/1 204/8/1
f 205/5/1 206/6/1 207/7/1 208/8/1
f 209/1/1 210/2/1 211/3/1 212/4/1
f 213/5/1 214/6/1 215/7/1 216/8/1
f 217/5/1 218/6/1 219/7/1 220/8/1
f 221/1/1 222/2/1 223/3/1 224/4/1
f 225/5/1 226/6/1 227/7/1 228/8/1
f 229/5/1 230/6/1 231/7/1 232/8/1
f 233/8/1 234/7/1 235/9/1 236/10/1
f 237/5/1 238/6/1 239/7/1 240/8/1
f 241/5/1 242/6/1 243/7/1 244/8/1
f 245/5/1 246/6/1 247/7/1 248/8/1
f 249/1/1 250/2/1 251/3/1 252/4/1
f 253/5/1 254/6/1 255/7/1 256/8/1
f 257/5/1 258/6/1 259/7/1 260/8/1
f 261/5/1 262/6/1 263/7/1 264/8/1
f 265/5/1 266/6/1 267/7/1 268/8/1
f 269/5/1 270/6/1 271/7/1 272/8/1
f 273/5/1 274/6/1 275/7/1 276/8/1
f 277/5/1 278/6/1 279/7/1 280/8/1
f 281/1/1 282/2/1 283/3/1 284/4/1
f 285/5/1 286/6/1 287/7/1 288/8/1
f 289/5/1 290/6/1 291/7/1 292/8/1
f 293/5/1 294/6/1 295/7/1 296/8/1
f 297/5/1 298/6/1 299/7/1 300/8/1
f 301/5/1 302/6/1 303/7/1 304/8/1
f 305/5/1 306/6/1 307/7/1 308/8/1
f 309/5/1 310/6/1 311/7/1 312/8/1
f 313/5/1 314/6/1 315/7/1 316/8/1
f 317/5/1 318/6/1 319/7/1 320/8/1
f 321/5/1 322/6/1 323/7/1 324/8/1
f 325/5/1 326/6/1 327/7/1 328/8/1
f 329/5/1 330/6/1 331/7/1 332/8/1
f 333/5/1 334/6/1 335/7/1 336/8/1
f 337/5/1 338/6/1 339/7/1 340/8/1
f 341/5/1 342/6/1 343/7/1 344/8/1
f 345/5/1 346/6/1 347/7/1 348/8/1
f 349/5/1 350/6/1 351/7/1 352/8/1
f 353/5/1 354/6/1 355/7/1 356/8/1
f 357/5/1 358/6/1 359/7/1 360/8/1
f 361/1/1 362/2/1 363/3/1 364/4/1
f 365/5/1 366/6/1 367/7/1 368/8/1
f 369/5/1 370/6/1 371/7/1 372/8/1
f 373/5/1 374/6/1 375/7/1 376/8/1
f 377/5/1 378/6/1 379/7/1 380/8/1
f 381/5/1 382/6/1 383/7/1 384/8/1
f 385/5/1 386/6/1 387/7/1 388/8/1
f 389/5/1 390/6/1 391/7/1 392/8/1
f 393/5/1 394/6/1 395/7/1 396/8/1
f 397/5/1 398/6/1 399/7/1 400/8/1
f 401/5/1 402/6/1 403/7/1 404/8/1
f 405/5/1 406/6/1 407/7/1 408/8/1
f 409/5/1 410/6/1 411/7/1 412/8/1
f 413/5/1 414/6/1 415/7/1 416/8/1
f 417/5/1 418/6/1 419/7/1 420/8/1
f 421/5/1 422/6/1 423/7/1 424/8/1
f 425/5/1 426/6/1 427/7/1 428/8/1
f 429/5/1 430/6/1 431/7/1 432/8/1
f 433/5/1 434/6/1 435/7/1 436/8/1
f 437/5/1 438/6/1 439/7/1 440/8/1
f 441/5/1 442/6/1 443/7/1 444/8/1
f 445/5/1 446/6/1 447/7/1 448/8/1
f 449/5/1 450/6/1 451/7/1 452/8/1
f 453/5/1 454/6/1 455/7/1 456/8/1
f 457/5/1 458/6/1 459/7/1 460/8/1
f 461/5/1 462/6/1 463/7/1 464/8/1
f 465/5/1 466/6/1 467/7/1 468/8/1
f 469/5/1 470/6/1 471/7/1 472/8/1
f 473/5/1 474/6/1 475/7/1 476/8/1
f 477/5/1 478/6/1 479/7/1 480/8/1
f 481/5/1 482/6/1 483/7/1 484/8/1
f 485/5/1 486/6/1 487/7/1 488/8/1
f 489/5/1 490/6/1 491/7/1 492/8/1
f 493/5/1 494/6/1 495/7/1 496/8/1
f 497/5/1 498/6/1 499/7/1 500/8/1
f 501/5/1 502/6/1 503/7/1 504/8/1
f 505/5/1 506/6/1 507/7/1 508/8/1
f 509/5/1 510/6/1 511/7/1 512/8/1
f 513/5/1 514/6/1 515/7/1 516/8/1
f 517/5/1 518/6/1 519/7/1 520/8/1
f 521/5/1 522/6/1 523/7/1 524/8/1
f 525/5/1 526/6/1 527/7/1 528/8/1
f 529/5/1 530/6/1 531/7/1 532/8/1
f 533/5/1 534/6/1 535/7/1 536/8/1
f 537/5/1 538/6/1 539/7/1 540/8/1
f 541/5/1 542/6/1 543/7/1 544/8/1
f 545/5/1 546/6/1 547/7/1 548/8/1
f 549/5/1 550/6/1 551/7/1 552/8/1
f 553/5/1 554/6/1 555/7/1 556/8/1
f 557/5/1 558/6/1 559/7/1 560/8/1
f 561/5/1 562/6/1 563/7/1 564/8/1
f 565/5/1 566/6/1 567/7/1 568/8/1
f 569/5/1 570/6/1 571/7/1 572/8/1
f 573/5/1 574/6/1 575/7/1 576/8/1
f 577/5/1 578/6/1 579/7/1 580/8/1
f 581/5/1 582/6/1 583/7/1 584/8/1
f 585/5/1 586/6/1 587/7/1 588/8/1
f 589/5/1 590/6/1 591/7/1 592/8/1
f 593/11/1 594/12/1 595/13/1 596/14/1
f 597/11/1 598/12/1 599/13/1 600/14/1
f 601/5/1 602/6/1 603/7/1 604/8/1
f 605/5/1 606/6/1 607/7/1 608/8/1
f 609/5/1 610/6/1 611/7/1 612/8/1
f 613/5/1 614/6/1 615/7/1 616/8/1
f 617/5/1 618/6/1 619/7/1 620/8/1
f 621/5/1 622/6/1 623/7/1 624/8/1
f 625/5/1 626/6/1 627/7/1 628/8/1
f 629/5/1 630/6/1 631/7/1 632/8/1

