# Tiled2Unity generated file. Do not modify by hand.
# Wavefront file for 'Level_01_mesh_0003.obj'

# Vertices (Count = 652)
v -7.68 -6.72 0
v -7.84 -6.72 0
v -7.84 -6.56 0
v -7.68 -6.56 0
v -6.72 -8.16 0
v -6.88 -8.16 0
v -6.88 -8 0
v -6.72 -8 0
v -7.2 -8.16 0
v -7.36 -8.16 0
v -7.36 -8 0
v -7.2 -8 0
v -7.36 -8.16 0
v -7.52 -8.16 0
v -7.52 -8 0
v -7.36 -8 0
v -7.52 -8.16 0
v -7.68 -8.16 0
v -7.68 -8 0
v -7.52 -8 0
v -8 -8.16 0
v -8.16 -8.16 0
v -8.16 -8 0
v -8 -8 0
v -8.32 -8.16 0
v -8.48 -8.16 0
v -8.48 -8 0
v -8.32 -8 0
v -3.68 -8.32 0
v -3.84 -8.32 0
v -3.84 -8.16 0
v -3.68 -8.16 0
v -6.72 -8.32 0
v -6.88 -8.32 0
v -6.88 -8.16 0
v -6.72 -8.16 0
v -6.88 -8.32 0
v -7.04 -8.32 0
v -7.04 -8.16 0
v -6.88 -8.16 0
v -7.04 -8.32 0
v -7.2 -8.32 0
v -7.2 -8.16 0
v -7.04 -8.16 0
v -7.2 -8.32 0
v -7.36 -8.32 0
v -7.36 -8.16 0
v -7.2 -8.16 0
v -7.36 -8.32 0
v -7.52 -8.32 0
v -7.52 -8.16 0
v -7.36 -8.16 0
v -7.52 -8.32 0
v -7.68 -8.32 0
v -7.68 -8.16 0
v -7.52 -8.16 0
v -7.84 -8.32 0
v -8 -8.32 0
v -8 -8.16 0
v -7.84 -8.16 0
v -8 -8.32 0
v -8.16 -8.32 0
v -8.16 -8.16 0
v -8 -8.16 0
v -8.16 -8.32 0
v -8.32 -8.32 0
v -8.32 -8.16 0
v -8.16 -8.16 0
v -8.32 -8.32 0
v -8.48 -8.32 0
v -8.48 -8.16 0
v -8.32 -8.16 0
v -4.16 -8.48 0
v -4.32 -8.48 0
v -4.32 -8.32 0
v -4.16 -8.32 0
v -4.32 -8.48 0
v -4.48 -8.48 0
v -4.48 -8.32 0
v -4.32 -8.32 0
v -4.48 -8.48 0
v -4.64 -8.48 0
v -4.64 -8.32 0
v -4.48 -8.32 0
v -4.64 -8.48 0
v -4.8 -8.48 0
v -4.8 -8.32 0
v -4.64 -8.32 0
v -4.8 -8.48 0
v -4.96 -8.48 0
v -4.96 -8.32 0
v -4.8 -8.32 0
v -4.96 -8.48 0
v -5.12 -8.48 0
v -5.12 -8.32 0
v -4.96 -8.32 0
v -5.12 -8.48 0
v -5.28 -8.48 0
v -5.28 -8.32 0
v -5.12 -8.32 0
v -5.28 -8.48 0
v -5.44 -8.48 0
v -5.44 -8.32 0
v -5.28 -8.32 0
v -5.44 -8.48 0
v -5.6 -8.48 0
v -5.6 -8.32 0
v -5.44 -8.32 0
v -5.6 -8.48 0
v -5.76 -8.48 0
v -5.76 -8.32 0
v -5.6 -8.32 0
v -5.76 -8.48 0
v -5.92 -8.48 0
v -5.92 -8.32 0
v -5.76 -8.32 0
v -5.92 -8.48 0
v -6.08 -8.48 0
v -6.08 -8.32 0
v -5.92 -8.32 0
v -6.08 -8.48 0
v -6.24 -8.48 0
v -6.24 -8.32 0
v -6.08 -8.32 0
v -6.24 -8.48 0
v -6.4 -8.48 0
v -6.4 -8.32 0
v -6.24 -8.32 0
v -6.4 -8.48 0
v -6.56 -8.48 0
v -6.56 -8.32 0
v -6.4 -8.32 0
v -6.56 -8.48 0
v -6.72 -8.48 0
v -6.72 -8.32 0
v -6.56 -8.32 0
v -6.72 -8.48 0
v -6.88 -8.48 0
v -6.88 -8.32 0
v -6.72 -8.32 0
v -6.88 -8.48 0
v -7.04 -8.48 0
v -7.04 -8.32 0
v -6.88 -8.32 0
v -7.04 -8.48 0
v -7.2 -8.48 0
v -7.2 -8.32 0
v -7.04 -8.32 0
v -7.2 -8.48 0
v -7.36 -8.48 0
v -7.36 -8.32 0
v -7.2 -8.32 0
v -7.36 -8.48 0
v -7.52 -8.48 0
v -7.52 -8.32 0
v -7.36 -8.32 0
v -7.52 -8.48 0
v -7.68 -8.48 0
v -7.68 -8.32 0
v -7.52 -8.32 0
v -7.68 -8.48 0
v -7.84 -8.48 0
v -7.84 -8.32 0
v -7.68 -8.32 0
v -7.84 -8.48 0
v -8 -8.48 0
v -8 -8.32 0
v -7.84 -8.32 0
v -8 -8.48 0
v -8.16 -8.48 0
v -8.16 -8.32 0
v -8 -8.32 0
v -8.16 -8.48 0
v -8.32 -8.48 0
v -8.32 -8.32 0
v -8.16 -8.32 0
v -8.32 -8.48 0
v -8.48 -8.48 0
v -8.48 -8.32 0
v -8.32 -8.32 0
v -4 -8.639999 0
v -4.16 -8.639999 0
v -4.16 -8.48 0
v -4 -8.48 0
v -4.16 -8.639999 0
v -4.32 -8.639999 0
v -4.32 -8.48 0
v -4.16 -8.48 0
v -4.32 -8.639999 0
v -4.48 -8.639999 0
v -4.48 -8.48 0
v -4.32 -8.48 0
v -4.48 -8.639999 0
v -4.64 -8.639999 0
v -4.64 -8.48 0
v -4.48 -8.48 0
v -4.64 -8.639999 0
v -4.8 -8.639999 0
v -4.8 -8.48 0
v -4.64 -8.48 0
v -4.8 -8.639999 0
v -4.96 -8.639999 0
v -4.96 -8.48 0
v -4.8 -8.48 0
v -4.96 -8.639999 0
v -5.12 -8.639999 0
v -5.12 -8.48 0
v -4.96 -8.48 0
v -5.12 -8.639999 0
v -5.28 -8.639999 0
v -5.28 -8.48 0
v -5.12 -8.48 0
v -5.28 -8.639999 0
v -5.44 -8.639999 0
v -5.44 -8.48 0
v -5.28 -8.48 0
v -5.44 -8.639999 0
v -5.6 -8.639999 0
v -5.6 -8.48 0
v -5.44 -8.48 0
v -5.6 -8.639999 0
v -5.76 -8.639999 0
v -5.76 -8.48 0
v -5.6 -8.48 0
v -5.76 -8.639999 0
v -5.92 -8.639999 0
v -5.92 -8.48 0
v -5.76 -8.48 0
v -5.92 -8.639999 0
v -6.08 -8.639999 0
v -6.08 -8.48 0
v -5.92 -8.48 0
v -6.08 -8.639999 0
v -6.24 -8.639999 0
v -6.24 -8.48 0
v -6.08 -8.48 0
v -6.24 -8.639999 0
v -6.4 -8.639999 0
v -6.4 -8.48 0
v -6.24 -8.48 0
v -6.4 -8.639999 0
v -6.56 -8.639999 0
v -6.56 -8.48 0
v -6.4 -8.48 0
v -6.56 -8.639999 0
v -6.72 -8.639999 0
v -6.72 -8.48 0
v -6.56 -8.48 0
v -6.72 -8.639999 0
v -6.88 -8.639999 0
v -6.88 -8.48 0
v -6.72 -8.48 0
v -6.88 -8.639999 0
v -7.04 -8.639999 0
v -7.04 -8.48 0
v -6.88 -8.48 0
v -7.04 -8.639999 0
v -7.2 -8.639999 0
v -7.2 -8.48 0
v -7.04 -8.48 0
v -7.2 -8.639999 0
v -7.36 -8.639999 0
v -7.36 -8.48 0
v -7.2 -8.48 0
v -7.36 -8.639999 0
v -7.52 -8.639999 0
v -7.52 -8.48 0
v -7.36 -8.48 0
v -7.52 -8.639999 0
v -7.68 -8.639999 0
v -7.68 -8.48 0
v -7.52 -8.48 0
v -7.68 -8.639999 0
v -7.84 -8.639999 0
v -7.84 -8.48 0
v -7.68 -8.48 0
v -7.84 -8.639999 0
v -8 -8.639999 0
v -8 -8.48 0
v -7.84 -8.48 0
v -8 -8.639999 0
v -8.16 -8.639999 0
v -8.16 -8.48 0
v -8 -8.48 0
v -8.16 -8.639999 0
v -8.32 -8.639999 0
v -8.32 -8.48 0
v -8.16 -8.48 0
v -8.32 -8.639999 0
v -8.48 -8.639999 0
v -8.48 -8.48 0
v -8.32 -8.48 0
v -4.16 -8.8 0
v -4.32 -8.8 0
v -4.32 -8.639999 0
v -4.16 -8.639999 0
v -4.32 -8.8 0
v -4.48 -8.8 0
v -4.48 -8.639999 0
v -4.32 -8.639999 0
v -4.48 -8.8 0
v -4.64 -8.8 0
v -4.64 -8.639999 0
v -4.48 -8.639999 0
v -4.64 -8.8 0
v -4.8 -8.8 0
v -4.8 -8.639999 0
v -4.64 -8.639999 0
v -4.8 -8.8 0
v -4.96 -8.8 0
v -4.96 -8.639999 0
v -4.8 -8.639999 0
v -4.96 -8.8 0
v -5.12 -8.8 0
v -5.12 -8.639999 0
v -4.96 -8.639999 0
v -5.12 -8.8 0
v -5.28 -8.8 0
v -5.28 -8.639999 0
v -5.12 -8.639999 0
v -5.28 -8.8 0
v -5.44 -8.8 0
v -5.44 -8.639999 0
v -5.28 -8.639999 0
v -5.44 -8.8 0
v -5.6 -8.8 0
v -5.6 -8.639999 0
v -5.44 -8.639999 0
v -5.6 -8.8 0
v -5.76 -8.8 0
v -5.76 -8.639999 0
v -5.6 -8.639999 0
v -5.76 -8.8 0
v -5.92 -8.8 0
v -5.92 -8.639999 0
v -5.76 -8.639999 0
v -5.92 -8.8 0
v -6.08 -8.8 0
v -6.08 -8.639999 0
v -5.92 -8.639999 0
v -6.08 -8.8 0
v -6.24 -8.8 0
v -6.24 -8.639999 0
v -6.08 -8.639999 0
v -6.24 -8.8 0
v -6.4 -8.8 0
v -6.4 -8.639999 0
v -6.24 -8.639999 0
v -6.4 -8.8 0
v -6.56 -8.8 0
v -6.56 -8.639999 0
v -6.4 -8.639999 0
v -6.56 -8.8 0
v -6.72 -8.8 0
v -6.72 -8.639999 0
v -6.56 -8.639999 0
v -6.72 -8.8 0
v -6.88 -8.8 0
v -6.88 -8.639999 0
v -6.72 -8.639999 0
v -6.88 -8.8 0
v -7.04 -8.8 0
v -7.04 -8.639999 0
v -6.88 -8.639999 0
v -7.04 -8.8 0
v -7.2 -8.8 0
v -7.2 -8.639999 0
v -7.04 -8.639999 0
v -7.2 -8.8 0
v -7.36 -8.8 0
v -7.36 -8.639999 0
v -7.2 -8.639999 0
v -7.36 -8.8 0
v -7.52 -8.8 0
v -7.52 -8.639999 0
v -7.36 -8.639999 0
v -7.52 -8.8 0
v -7.68 -8.8 0
v -7.68 -8.639999 0
v -7.52 -8.639999 0
v -7.68 -8.8 0
v -7.84 -8.8 0
v -7.84 -8.639999 0
v -7.68 -8.639999 0
v -7.84 -8.8 0
v -8 -8.8 0
v -8 -8.639999 0
v -7.84 -8.639999 0
v -8 -8.8 0
v -8.16 -8.8 0
v -8.16 -8.639999 0
v -8 -8.639999 0
v -8.16 -8.8 0
v -8.32 -8.8 0
v -8.32 -8.639999 0
v -8.16 -8.639999 0
v -8.32 -8.8 0
v -8.48 -8.8 0
v -8.48 -8.639999 0
v -8.32 -8.639999 0
v -3.68 -8.96 0
v -3.84 -8.96 0
v -3.84 -8.8 0
v -3.68 -8.8 0
v -4.16 -8.96 0
v -4.32 -8.96 0
v -4.32 -8.8 0
v -4.16 -8.8 0
v -4.32 -8.96 0
v -4.48 -8.96 0
v -4.48 -8.8 0
v -4.32 -8.8 0
v -4.48 -8.96 0
v -4.64 -8.96 0
v -4.64 -8.8 0
v -4.48 -8.8 0
v -4.64 -8.96 0
v -4.8 -8.96 0
v -4.8 -8.8 0
v -4.64 -8.8 0
v -4.8 -8.96 0
v -4.96 -8.96 0
v -4.96 -8.8 0
v -4.8 -8.8 0
v -4.96 -8.96 0
v -5.12 -8.96 0
v -5.12 -8.8 0
v -4.96 -8.8 0
v -5.12 -8.96 0
v -5.28 -8.96 0
v -5.28 -8.8 0
v -5.12 -8.8 0
v -5.28 -8.96 0
v -5.44 -8.96 0
v -5.44 -8.8 0
v -5.28 -8.8 0
v -5.44 -8.96 0
v -5.6 -8.96 0
v -5.6 -8.8 0
v -5.44 -8.8 0
v -5.6 -8.96 0
v -5.76 -8.96 0
v -5.76 -8.8 0
v -5.6 -8.8 0
v -5.76 -8.96 0
v -5.92 -8.96 0
v -5.92 -8.8 0
v -5.76 -8.8 0
v -5.92 -8.96 0
v -6.08 -8.96 0
v -6.08 -8.8 0
v -5.92 -8.8 0
v -6.08 -8.96 0
v -6.24 -8.96 0
v -6.24 -8.8 0
v -6.08 -8.8 0
v -6.24 -8.96 0
v -6.4 -8.96 0
v -6.4 -8.8 0
v -6.24 -8.8 0
v -6.4 -8.96 0
v -6.56 -8.96 0
v -6.56 -8.8 0
v -6.4 -8.8 0
v -6.56 -8.96 0
v -6.72 -8.96 0
v -6.72 -8.8 0
v -6.56 -8.8 0
v -6.72 -8.96 0
v -6.88 -8.96 0
v -6.88 -8.8 0
v -6.72 -8.8 0
v -6.88 -8.96 0
v -7.04 -8.96 0
v -7.04 -8.8 0
v -6.88 -8.8 0
v -7.04 -8.96 0
v -7.2 -8.96 0
v -7.2 -8.8 0
v -7.04 -8.8 0
v -7.2 -8.96 0
v -7.36 -8.96 0
v -7.36 -8.8 0
v -7.2 -8.8 0
v -7.36 -8.96 0
v -7.52 -8.96 0
v -7.52 -8.8 0
v -7.36 -8.8 0
v -7.52 -8.96 0
v -7.68 -8.96 0
v -7.68 -8.8 0
v -7.52 -8.8 0
v -7.68 -8.96 0
v -7.84 -8.96 0
v -7.84 -8.8 0
v -7.68 -8.8 0
v -7.84 -8.96 0
v -8 -8.96 0
v -8 -8.8 0
v -7.84 -8.8 0
v -8 -8.96 0
v -8.16 -8.96 0
v -8.16 -8.8 0
v -8 -8.8 0
v -8.16 -8.96 0
v -8.32 -8.96 0
v -8.32 -8.8 0
v -8.16 -8.8 0
v -8.32 -8.96 0
v -8.48 -8.96 0
v -8.48 -8.8 0
v -8.32 -8.8 0
v -3.68 -9.12 0
v -3.84 -9.12 0
v -3.84 -8.96 0
v -3.68 -8.96 0
v -7.36 -9.12 0
v -7.52 -9.12 0
v -7.52 -8.96 0
v -7.36 -8.96 0
v -7.52 -9.12 0
v -7.68 -9.12 0
v -7.68 -8.96 0
v -7.52 -8.96 0
v -7.68 -9.12 0
v -7.84 -9.12 0
v -7.84 -8.96 0
v -7.68 -8.96 0
v -7.84 -9.12 0
v -8 -9.12 0
v -8 -8.96 0
v -7.84 -8.96 0
v -8 -9.12 0
v -8.16 -9.12 0
v -8.16 -8.96 0
v -8 -8.96 0
v -8.32 -9.12 0
v -8.48 -9.12 0
v -8.48 -8.96 0
v -8.32 -8.96 0
v -3.68 -9.28 0
v -3.84 -9.28 0
v -3.84 -9.12 0
v -3.68 -9.12 0
v -7.36 -9.28 0
v -7.52 -9.28 0
v -7.52 -9.12 0
v -7.36 -9.12 0
v -7.52 -9.28 0
v -7.68 -9.28 0
v -7.68 -9.12 0
v -7.52 -9.12 0
v -7.68 -9.28 0
v -7.84 -9.28 0
v -7.84 -9.12 0
v -7.68 -9.12 0
v -7.84 -9.28 0
v -8 -9.28 0
v -8 -9.12 0
v -7.84 -9.12 0
v -8 -9.28 0
v -8.16 -9.28 0
v -8.16 -9.12 0
v -8 -9.12 0
v -8.32 -9.28 0
v -8.48 -9.28 0
v -8.48 -9.12 0
v -8.32 -9.12 0
v -3.68 -9.44 0
v -3.84 -9.44 0
v -3.84 -9.28 0
v -3.68 -9.28 0
v -7.68 -9.44 0
v -7.84 -9.44 0
v -7.84 -9.28 0
v -7.68 -9.28 0
v -7.84 -9.44 0
v -8 -9.44 0
v -8 -9.28 0
v -7.84 -9.28 0
v -8 -9.44 0
v -8.16 -9.44 0
v -8.16 -9.28 0
v -8 -9.28 0
v -8.32 -9.44 0
v -8.48 -9.44 0
v -8.48 -9.28 0
v -8.32 -9.28 0
v -3.68 -9.599999 0
v -3.84 -9.599999 0
v -3.84 -9.44 0
v -3.68 -9.44 0
v -8 -9.599999 0
v -8.16 -9.599999 0
v -8.16 -9.44 0
v -8 -9.44 0
v -8.32 -9.599999 0
v -8.48 -9.599999 0
v -8.48 -9.44 0
v -8.32 -9.44 0
v -8 -9.76 0
v -8.16 -9.76 0
v -8.16 -9.599999 0
v -8 -9.599999 0
v -8.32 -9.76 0
v -8.48 -9.76 0
v -8.48 -9.599999 0
v -8.32 -9.599999 0
v -8.32 -9.92 0
v -8.48 -9.92 0
v -8.48 -9.76 0
v -8.32 -9.76 0
v -6.72 -10.08 0
v -6.88 -10.08 0
v -6.88 -9.92 0
v -6.72 -9.92 0
v -8.32 -10.08 0
v -8.48 -10.08 0
v -8.48 -9.92 0
v -8.32 -9.92 0
v -6.72 -10.24 0
v -6.88 -10.24 0
v -6.88 -10.08 0
v -6.72 -10.08 0
v -6.88 -10.24 0
v -7.04 -10.24 0
v -7.04 -10.08 0
v -6.88 -10.08 0
v -6.72 -10.4 0
v -6.88 -10.4 0
v -6.88 -10.24 0
v -6.72 -10.24 0
v -6.88 -10.4 0
v -7.04 -10.4 0
v -7.04 -10.24 0
v -6.88 -10.24 0
v -6.72 -10.56 0
v -6.88 -10.56 0
v -6.88 -10.4 0
v -6.72 -10.4 0
v -6.88 -10.56 0
v -7.04 -10.56 0
v -7.04 -10.4 0
v -6.88 -10.4 0
v -6.72 -10.72 0
v -6.88 -10.72 0
v -6.88 -10.56 0
v -6.72 -10.56 0
v -6.88 -10.72 0
v -7.04 -10.72 0
v -7.04 -10.56 0
v -6.88 -10.56 0

# Texture cooridinates (Count = 31)
vt 0.52 0.5217391
vt 0.56 0.5217391
vt 0.56 0.5652174
vt 0.52 0.5652174
vt 0.72 0.7826087
vt 0.76 0.7826087
vt 0.76 0.8260869
vt 0.72 0.8260869
vt 0.52 0.7826087
vt 0.56 0.7826087
vt 0.56 0.8260869
vt 0.52 0.8260869
vt 0.56 0.6521739
vt 0.6 0.6521739
vt 0.6 0.6956522
vt 0.56 0.6956522
vt 0.52 0.7391304
vt 0.56 0.7391304
vt 0.52 0.6086956
vt 0.56 0.6086956
vt 0.52 0.6521739
vt 0.48 0.7391304
vt 0.48 0.7826087
vt 0.84 0.4782609
vt 0.88 0.4782609
vt 0.88 0.5217391
vt 0.84 0.5217391
vt 0.28 0.5217391
vt 0.32 0.5217391
vt 0.32 0.5652174
vt 0.28 0.5652174

# Normal
vn 0 0 -1

# Mesh description
g Level_01_mesh_0003

# Faces
f 1/1/1 2/2/1 3/3/1 4/4/1
f 5/5/1 6/6/1 7/7/1 8/8/1
f 9/5/1 10/6/1 11/7/1 12/8/1
f 13/5/1 14/6/1 15/7/1 16/8/1
f 17/9/1 18/10/1 19/11/1 20/12/1
f 21/9/1 22/10/1 23/11/1 24/12/1
f 25/13/1 26/14/1 27/15/1 28/16/1
f 29/17/1 30/18/1 31/10/1 32/9/1
f 33/5/1 34/6/1 35/7/1 36/8/1
f 37/5/1 38/6/1 39/7/1 40/8/1
f 41/5/1 42/6/1 43/7/1 44/8/1
f 45/5/1 46/6/1 47/7/1 48/8/1
f 49/9/1 50/10/1 51/11/1 52/12/1
f 53/9/1 54/10/1 55/11/1 56/12/1
f 57/19/1 58/20/1 59/13/1 60/21/1
f 61/19/1 62/20/1 63/13/1 64/21/1
f 65/19/1 66/20/1 67/13/1 68/21/1
f 69/13/1 70/14/1 71/15/1 72/16/1
f 73/22/1 74/17/1 75/9/1 76/23/1
f 77/22/1 78/17/1 79/9/1 80/23/1
f 81/22/1 82/17/1 83/9/1 84/23/1
f 85/22/1 86/17/1 87/9/1 88/23/1
f 89/22/1 90/17/1 91/9/1 92/23/1
f 93/22/1 94/17/1 95/9/1 96/23/1
f 97/22/1 98/17/1 99/9/1 100/23/1
f 101/22/1 102/17/1 103/9/1 104/23/1
f 105/22/1 106/17/1 107/9/1 108/23/1
f 109/22/1 110/17/1 111/9/1 112/23/1
f 113/22/1 114/17/1 115/9/1 116/23/1
f 117/22/1 118/17/1 119/9/1 120/23/1
f 121/22/1 122/17/1 123/9/1 124/23/1
f 125/22/1 126/17/1 127/9/1 128/23/1
f 129/22/1 130/17/1 131/9/1 132/23/1
f 133/22/1 134/17/1 135/9/1 136/23/1
f 137/5/1 138/6/1 139/7/1 140/8/1
f 141/5/1 142/6/1 143/7/1 144/8/1
f 145/5/1 146/6/1 147/7/1 148/8/1
f 149/5/1 150/6/1 151/7/1 152/8/1
f 153/9/1 154/10/1 155/11/1 156/12/1
f 157/19/1 158/20/1 159/13/1 160/21/1
f 161/19/1 162/20/1 163/13/1 164/21/1
f 165/19/1 166/20/1 167/13/1 168/21/1
f 169/22/1 170/17/1 171/9/1 172/23/1
f 173/19/1 174/20/1 175/13/1 176/21/1
f 177/24/1 178/25/1 179/26/1 180/27/1
f 181/22/1 182/17/1 183/9/1 184/23/1
f 185/22/1 186/17/1 187/9/1 188/23/1
f 189/22/1 190/17/1 191/9/1 192/23/1
f 193/22/1 194/17/1 195/9/1 196/23/1
f 197/22/1 198/17/1 199/9/1 200/23/1
f 201/22/1 202/17/1 203/9/1 204/23/1
f 205/22/1 206/17/1 207/9/1 208/23/1
f 209/22/1 210/17/1 211/9/1 212/23/1
f 213/22/1 214/17/1 215/9/1 216/23/1
f 217/22/1 218/17/1 219/9/1 220/23/1
f 221/22/1 222/17/1 223/9/1 224/23/1
f 225/22/1 226/17/1 227/9/1 228/23/1
f 229/22/1 230/17/1 231/9/1 232/23/1
f 233/22/1 234/17/1 235/9/1 236/23/1
f 237/22/1 238/17/1 239/9/1 240/23/1
f 241/22/1 242/17/1 243/9/1 244/23/1
f 245/22/1 246/17/1 247/9/1 248/23/1
f 249/22/1 250/17/1 251/9/1 252/23/1
f 253/22/1 254/17/1 255/9/1 256/23/1
f 257/22/1 258/17/1 259/9/1 260/23/1
f 261/5/1 262/6/1 263/7/1 264/8/1
f 265/28/1 266/29/1 267/30/1 268/31/1
f 269/19/1 270/20/1 271/13/1 272/21/1
f 273/19/1 274/20/1 275/13/1 276/21/1
f 277/19/1 278/20/1 279/13/1 280/21/1
f 281/19/1 282/20/1 283/13/1 284/21/1
f 285/19/1 286/20/1 287/13/1 288/21/1
f 289/24/1 290/25/1 291/26/1 292/27/1
f 293/22/1 294/17/1 295/9/1 296/23/1
f 297/22/1 298/17/1 299/9/1 300/23/1
f 301/22/1 302/17/1 303/9/1 304/23/1
f 305/22/1 306/17/1 307/9/1 308/23/1
f 309/22/1 310/17/1 311/9/1 312/23/1
f 313/22/1 314/17/1 315/9/1 316/23/1
f 317/22/1 318/17/1 319/9/1 320/23/1
f 321/22/1 322/17/1 323/9/1 324/23/1
f 325/22/1 326/17/1 327/9/1 328/23/1
f 329/22/1 330/17/1 331/9/1 332/23/1
f 333/22/1 334/17/1 335/9/1 336/23/1
f 337/22/1 338/17/1 339/9/1 340/23/1
f 341/22/1 342/17/1 343/9/1 344/23/1
f 345/22/1 346/17/1 347/9/1 348/23/1
f 349/22/1 350/17/1 351/9/1 352/23/1
f 353/22/1 354/17/1 355/9/1 356/23/1
f 357/22/1 358/17/1 359/9/1 360/23/1
f 361/22/1 362/17/1 363/9/1 364/23/1
f 365/22/1 366/17/1 367/9/1 368/23/1
f 369/22/1 370/17/1 371/9/1 372/23/1
f 373/28/1 374/29/1 375/30/1 376/31/1
f 377/22/1 378/17/1 379/9/1 380/23/1
f 381/22/1 382/17/1 383/9/1 384/23/1
f 385/22/1 386/17/1 387/9/1 388/23/1
f 389/19/1 390/20/1 391/13/1 392/21/1
f 393/19/1 394/20/1 395/13/1 396/21/1
f 397/24/1 398/25/1 399/26/1 400/27/1
f 401/28/1 402/29/1 403/30/1 404/31/1
f 405/22/1 406/17/1 407/9/1 408/23/1
f 409/22/1 410/17/1 411/9/1 412/23/1
f 413/22/1 414/17/1 415/9/1 416/23/1
f 417/22/1 418/17/1 419/9/1 420/23/1
f 421/22/1 422/17/1 423/9/1 424/23/1
f 425/22/1 426/17/1 427/9/1 428/23/1
f 429/22/1 430/17/1 431/9/1 432/23/1
f 433/22/1 434/17/1 435/9/1 436/23/1
f 437/22/1 438/17/1 439/9/1 440/23/1
f 441/22/1 442/17/1 443/9/1 444/23/1
f 445/22/1 446/17/1 447/9/1 448/23/1
f 449/22/1 450/17/1 451/9/1 452/23/1
f 453/22/1 454/17/1 455/9/1 456/23/1
f 457/22/1 458/17/1 459/9/1 460/23/1
f 461/22/1 462/17/1 463/9/1 464/23/1
f 465/22/1 466/17/1 467/9/1 468/23/1
f 469/22/1 470/17/1 471/9/1 472/23/1
f 473/22/1 474/17/1 475/9/1 476/23/1
f 477/22/1 478/17/1 479/9/1 480/23/1
f 481/22/1 482/17/1 483/9/1 484/23/1
f 485/22/1 486/17/1 487/9/1 488/23/1
f 489/22/1 490/17/1 491/9/1 492/23/1
f 493/22/1 494/17/1 495/9/1 496/23/1
f 497/22/1 498/17/1 499/9/1 500/23/1
f 501/19/1 502/20/1 503/13/1 504/21/1
f 505/19/1 506/20/1 507/13/1 508/21/1
f 509/24/1 510/25/1 511/26/1 512/27/1
f 513/28/1 514/29/1 515/30/1 516/31/1
f 517/9/1 518/10/1 519/11/1 520/12/1
f 521/22/1 522/17/1 523/9/1 524/23/1
f 525/9/1 526/10/1 527/11/1 528/12/1
f 529/9/1 530/10/1 531/11/1 532/12/1
f 533/9/1 534/10/1 535/11/1 536/12/1
f 537/24/1 538/25/1 539/26/1 540/27/1
f 541/28/1 542/29/1 543/30/1 544/31/1
f 545/9/1 546/10/1 547/11/1 548/12/1
f 549/22/1 550/17/1 551/9/1 552/23/1
f 553/9/1 554/10/1 555/11/1 556/12/1
f 557/9/1 558/10/1 559/11/1 560/12/1
f 561/9/1 562/10/1 563/11/1 564/12/1
f 565/24/1 566/25/1 567/26/1 568/27/1
f 569/28/1 570/29/1 571/30/1 572/31/1
f 573/9/1 574/10/1 575/11/1 576/12/1
f 577/9/1 578/10/1 579/11/1 580/12/1
f 581/9/1 582/10/1 583/11/1 584/12/1
f 585/24/1 586/25/1 587/26/1 588/27/1
f 589/28/1 590/29/1 591/30/1 592/31/1
f 593/9/1 594/10/1 595/11/1 596/12/1
f 597/24/1 598/25/1 599/26/1 600/27/1
f 601/9/1 602/10/1 603/11/1 604/12/1
f 605/24/1 606/25/1 607/26/1 608/27/1
f 609/24/1 610/25/1 611/26/1 612/27/1
f 613/28/1 614/29/1 615/30/1 616/31/1
f 617/24/1 618/25/1 619/26/1 620/27/1
f 621/28/1 622/29/1 623/30/1 624/31/1
f 625/24/1 626/25/1 627/26/1 628/27/1
f 629/28/1 630/29/1 631/30/1 632/31/1
f 633/24/1 634/25/1 635/26/1 636/27/1
f 637/28/1 638/29/1 639/30/1 640/31/1
f 641/24/1 642/25/1 643/26/1 644/27/1
f 645/24/1 646/25/1 647/26/1 648/27/1
f 649/24/1 650/25/1 651/26/1 652/27/1

